<svg id="icons" xmlns="http://www.w3.org/2000/svg" viewBox="0 0 584.3 584.32"><defs><style>.cls-1{fill:#f3f3f4;}.cls-2{fill:#e15426;}.cls-3{font-size:28.7px;}.cls-10,.cls-3{fill:#c6c6c6;}.cls-3,.cls-4{font-family:Mokoko-BlackItalic, Mokoko;font-weight:800;font-style:italic;}.cls-4{font-size:19.34px;fill:#c6c6c5;}.cls-5{fill:#fff;}.cls-6,.cls-7,.cls-8,.cls-9{fill:none;stroke-miterlimit:10;}.cls-6{stroke:#fff;}.cls-6,.cls-7{stroke-width:4px;}.cls-7{stroke:#c6c6c6;}.cls-8,.cls-9{stroke:#c6c6c5;stroke-width:2px;}.cls-9{stroke-linecap:round;}</style></defs><path id="bg" class="cls-1" d="M298.67,12.16C137.32,12.16,6.52,143,6.52,304.32s130.8,292.16,292.15,292.16,292.15-130.8,292.15-292.16S460,12.16,298.67,12.16Zm1.95,469.6A177.45,177.45,0,1,1,478.06,304.32,177.43,177.43,0,0,1,300.62,481.76Z" transform="translate(-6.52 -12.16)"/><g id="_24" data-name="24"><path class="cls-2" d="M133.08,186.46a36.27,36.27,0,0,1-9.28-.7,35.12,35.12,0,0,1-8.81-3.3,31.58,31.58,0,0,1-7.64-5.68,32.12,32.12,0,0,1-5.81-7.67,33.89,33.89,0,0,1-3.3-9.16,35.11,35.11,0,0,1-.37-9.82,35.79,35.79,0,0,1,2.58-9.5,37.64,37.64,0,0,1,5.11-8.43,36.21,36.21,0,0,1,7.26-6.77,34.86,34.86,0,0,1,9.06-4.39,39.11,39.11,0,0,1,5-1,32.84,32.84,0,0,1,10.09.34,32.47,32.47,0,0,1,4.91,1.35,30.35,30.35,0,0,1,15.6,12.79,33.16,33.16,0,0,1,3.8,9.45c.18.82.35,1.65.48,2.49a10.13,10.13,0,0,1,.18,2.52,6.44,6.44,0,0,1-2.88,4.87.72.72,0,0,1-.9,0l0,0a9.09,9.09,0,0,1-2.93-4.24,13.89,13.89,0,0,1-.36-2c-.1-.67-.23-1.33-.37-2a25.94,25.94,0,0,0-3-7.43,24.66,24.66,0,0,0-5.13-6,24.38,24.38,0,0,0-6.87-4,26.1,26.1,0,0,0-15.89-.9,28.47,28.47,0,0,0-7.39,3.37,32.85,32.85,0,0,0-6.25,5.42,32.41,32.41,0,0,0-4.61,7,31.83,31.83,0,0,0-2.53,8,30.47,30.47,0,0,0-.15,8.37,29.61,29.61,0,0,0,7.09,15.28,30.81,30.81,0,0,0,6.57,5.68,33,33,0,0,0,7.94,3.79,36.94,36.94,0,0,0,8.78,1.58h0a.48.48,0,0,1,.44.5A.47.47,0,0,1,133.08,186.46Z" transform="translate(-6.52 -12.16)"/><polygon class="cls-2" points="142.87 136.31 160.38 133.43 153.06 143.61 142.87 136.31"/><text class="cls-3" transform="translate(100.85 148.82)">24</text><text class="cls-4" transform="translate(117.83 164.97)">h</text></g><g id="boarding"><polygon class="cls-2" points="325.29 58.41 320.35 58.41 320.35 90.93 258.68 90.93 258.68 58.41 253.74 58.41 289.51 28.66 298.41 36.06 298.41 28.66 309.58 28.66 309.58 45.34 325.29 58.41"/><polygon class="cls-5" points="300.29 63.64 300.29 70.23 292.81 70.23 292.81 77.7 286.22 77.7 286.22 70.23 278.75 70.23 278.75 63.64 286.22 63.64 286.22 56.16 292.81 56.16 292.81 63.64 300.29 63.64"/><path class="cls-6" d="M312.81,79.09A16.78,16.78,0,1,1,296,62.31,16.78,16.78,0,0,1,312.81,79.09Z" transform="translate(-6.52 -12.16)"/></g><g id="emergency"><polygon class="cls-2" points="314.59 519.82 314.59 535.17 297.19 535.17 297.19 552.58 281.84 552.58 281.84 535.17 264.44 535.17 264.44 519.82 281.84 519.82 281.84 502.42 297.19 502.42 297.19 519.82 314.59 519.82"/><path class="cls-7" d="M335.1,539.65A39.07,39.07,0,1,1,296,500.58,39.08,39.08,0,0,1,335.1,539.65Z" transform="translate(-6.52 -12.16)"/></g><g id="lab"><path class="cls-8" d="M551.84,352.35H505a.83.83,0,0,1-.72-1.24l19-33.18a.87.87,0,0,0,.11-.41V303.24c0-3-1.73-3.67-2.75-3.79a.81.81,0,0,1-.71-.82h0a.83.83,0,0,1,.83-.83h15.36a.83.83,0,0,1,.83.83h0a.81.81,0,0,1-.71.82c-1,.12-2.75.76-2.75,3.79v14.28a.87.87,0,0,0,.11.41l19,33.18A.83.83,0,0,1,551.84,352.35Z" transform="translate(-6.52 -12.16)"/><circle class="cls-2" cx="517.03" cy="278.59" r="4.12"/><circle class="cls-2" cx="525.27" cy="281.03" r="2.43"/><circle class="cls-2" cx="524.32" cy="273.61" r="1.48"/><circle class="cls-2" cx="519.76" cy="320.58" r="2.17"/><circle class="cls-2" cx="518.72" cy="312.92" r="2.43"/><circle class="cls-2" cx="525.27" cy="316.4" r="1.48"/><path class="cls-2" d="M516.1,334.55,507.87,349a.79.79,0,0,0,.68,1.18h39.78A.79.79,0,0,0,549,349l-7.53-12.41a4.11,4.11,0,0,0-4.68-1.82c-2.6.77-6.22,1.86-8.33,2.57-7.25,2.48-3.13-4.62-8.73-4.61A4.75,4.75,0,0,0,516.1,334.55Z" transform="translate(-6.52 -12.16)"/></g><g id="surgery"><path class="cls-2" d="M508.07,124.58H511a4.34,4.34,0,0,1,4.34,4.34v26.72a0,0,0,0,1,0,0H503.73a0,0,0,0,1,0,0V128.92a4.34,4.34,0,0,1,4.34-4.34Z" transform="translate(241.79 -331.41) rotate(45)"/><circle class="cls-5" cx="509.36" cy="121.6" r="2.69"/><rect class="cls-2" x="489.78" y="152.3" width="11.59" height="3.53" transform="translate(247.57 -317.46) rotate(45)"/><path class="cls-2" d="M481.95,155.1h11.59a0,0,0,0,1,0,0v9.38a4.22,4.22,0,0,1-4.22,4.22h-3.15a4.22,4.22,0,0,1-4.22-4.22V155.1a0,0,0,0,1,0,0Z" transform="translate(250.82 -309.62) rotate(45)"/><path class="cls-2" d="M478.68,164.66,460.34,183a.38.38,0,0,0,.17.63l8.54,2.23a4,4,0,0,0,3.87-1.05l5.69-5.7a4,4,0,0,0,1.12-3.54l-.32-1.85,4.17-4.17Z" transform="translate(-6.52 -12.16)"/><rect class="cls-5" x="470.28" y="168.32" width="1.89" height="15.81" rx="0.71" transform="translate(256.11 -293.75) rotate(45)"/></g><g id="sono"><path class="cls-2" d="M85.13,299.73H58.62s-.95-5.3,12.5-5.3S85.13,299.73,85.13,299.73Z" transform="translate(-6.52 -12.16)"/><path class="cls-2" d="M52.09,288.88H78.62a0,0,0,0,1,0,0v5.59A9.56,9.56,0,0,1,69.05,304h-7.4a9.56,9.56,0,0,1-9.56-9.56v-5.59A0,0,0,0,1,52.09,288.88Z"/><path class="cls-2" d="M58,304H72.74a0,0,0,0,1,0,0v13.64a7.39,7.39,0,0,1-7.39,7.39h0A7.39,7.39,0,0,1,58,317.67V304A0,0,0,0,1,58,304Z"/><rect class="cls-2" x="63.32" y="322.52" width="4.06" height="11.08" rx="1.29"/><rect class="cls-2" x="64.86" y="331.61" width="0.98" height="8.58"/><circle class="cls-5" cx="65.35" cy="296.29" r="1.29"/><circle class="cls-5" cx="65.35" cy="300.4" r="1.29"/><circle class="cls-5" cx="65.35" cy="304.5" r="1.29"/><rect class="cls-5" x="63.32" y="310.03" width="4.06" height="10.46" rx="1.03"/><path class="cls-9" d="M56.52,293.65s12.77-10.66,30.7,0" transform="translate(-6.52 -12.16)"/><path class="cls-9" d="M51.77,288.66s16.72-14,40.2,0" transform="translate(-6.52 -12.16)"/><path class="cls-9" d="M47.79,283.55s20-16.71,48.16,0" transform="translate(-6.52 -12.16)"/></g><g id="grooming"><path class="cls-2" d="M488,446.19l6.36,16.38-3.68,3.18-.13.13c-6.51,7.35,0,16.85,1.52,19.38.14.24.25.49.38.74.77,1.45,4.34,6.62.72,8-4.16,1.62-6.41-3.44-6.41-3.44s-1.57-3.75-3.36-8.08l0,0a1.29,1.29,0,0,1-1,0,1.32,1.32,0,0,1-.7-.73,1.38,1.38,0,0,1,0-1,1.34,1.34,0,0,1,.74-.7c-.19-.45-.37-.9-.55-1.35l0,0a2,2,0,0,1-2.62-1.16l-.64-1.66a2,2,0,0,1,0-1.54,2,2,0,0,1,1.09-1.06l-.18-.47c-3.14-8.09-23.32,1.9-24.18,2.21,0,0,0,0,0,0l-4.54-11.68s0-.06,0,0c.42.18,2.94.3,16.18-8.94C482.06,443.79,488,446.19,488,446.19Z" transform="translate(-6.52 -12.16)"/><path class="cls-2" d="M449.79,463.57l4.68,12.05s-4.32,1.3-5.85,4.23a5.39,5.39,0,0,1-1.15,1.57c-.92.83-1,.44-1,.44l-6.79-17.49s-.19-.35,1-.36a5.2,5.2,0,0,1,1.91.38C445.72,465.52,449.79,463.57,449.79,463.57Z" transform="translate(-6.52 -12.16)"/><path class="cls-2" d="M489.58,446.32,495.29,461s1.93-3.25-.48-9.11S489.58,446.32,489.58,446.32Z" transform="translate(-6.52 -12.16)"/><path class="cls-10" d="M438.27,467.36a13.65,13.65,0,0,1-3.65,5.53,5.25,5.25,0,0,1-3.53,1.31,4.79,4.79,0,0,1-1.93-.54,14.75,14.75,0,0,1-1.42-.91,3.19,3.19,0,0,0-2.32-.71,5.35,5.35,0,0,0-2.45,1.1,27.16,27.16,0,0,0-4.31,4.44h0a.26.26,0,0,1-.37,0,.26.26,0,0,1-.07-.32,16.56,16.56,0,0,1,3.72-5.43,6.47,6.47,0,0,1,3.21-1.7,4.38,4.38,0,0,1,2,.1,6.33,6.33,0,0,1,1.69.82,5.29,5.29,0,0,0,2.38,1.18,3.24,3.24,0,0,0,1.18-.14,6.17,6.17,0,0,0,1.2-.61,21.31,21.31,0,0,0,4.22-4.43h0a.26.26,0,0,1,.38,0A.25.25,0,0,1,438.27,467.36Z" transform="translate(-6.52 -12.16)"/><path class="cls-10" d="M440.4,472.84a13.68,13.68,0,0,1-3.65,5.54,5.25,5.25,0,0,1-3.53,1.31,4.6,4.6,0,0,1-1.93-.55,13,13,0,0,1-1.42-.91,3.18,3.18,0,0,0-2.32-.7,5.35,5.35,0,0,0-2.45,1.1,27.16,27.16,0,0,0-4.31,4.44h0a.27.27,0,0,1-.45-.29,16.64,16.64,0,0,1,3.73-5.43,6.47,6.47,0,0,1,3.21-1.7,4.38,4.38,0,0,1,2,.1,6,6,0,0,1,1.69.82,5.16,5.16,0,0,0,2.38,1.17,3,3,0,0,0,1.18-.14,6.11,6.11,0,0,0,1.2-.6,21.82,21.82,0,0,0,4.22-4.43h0a.27.27,0,0,1,.38-.05A.26.26,0,0,1,440.4,472.84Z" transform="translate(-6.52 -12.16)"/><path class="cls-10" d="M439.88,480.27a10.7,10.7,0,0,1-2.94,4.63,4.44,4.44,0,0,1-3,1.12,3.91,3.91,0,0,1-1.65-.47,9,9,0,0,1-1.18-.75,2.46,2.46,0,0,0-1.77-.55,4.17,4.17,0,0,0-1.93.84,24,24,0,0,0-3.59,3.55h0a.28.28,0,0,1-.39,0,.27.27,0,0,1-.06-.31,13.14,13.14,0,0,1,3-4.53,5.35,5.35,0,0,1,2.7-1.44,3.55,3.55,0,0,1,1.71.08,5.07,5.07,0,0,1,1.44.69,4.07,4.07,0,0,0,1.85.93,2.9,2.9,0,0,0,1.84-.55,18.93,18.93,0,0,0,3.51-3.53h0a.27.27,0,0,1,.38,0A.26.26,0,0,1,439.88,480.27Z" transform="translate(-6.52 -12.16)"/></g><g id="nutrition"><path class="cls-10" d="M164,468.49a7.48,7.48,0,0,0-2.25.34,7.35,7.35,0,0,0-2.23-.34h-.3l-.27-.11a3.58,3.58,0,0,0-.84-.59c2.08-.21,3.65-1.21,3.65-2.41,0-1.36-2-2.45-4.48-2.45a7.47,7.47,0,0,0-2.24.33,6.56,6.56,0,0,0-1.14-.26,1.45,1.45,0,0,0,.17-.67c0-1.35-2-2.45-4.48-2.45a7.16,7.16,0,0,0-2.24.34,7.12,7.12,0,0,0-2.24-.34h-.46a5.57,5.57,0,0,0-4-1.37,7.18,7.18,0,0,0-2.25.34,7.05,7.05,0,0,0-2.23-.34,5.31,5.31,0,0,0-4.12,1.5A8.23,8.23,0,0,0,131,460a7.12,7.12,0,0,0-2.24.34,7.16,7.16,0,0,0-2.24-.34l-.46,0a5.53,5.53,0,0,0-4-1.38,7.43,7.43,0,0,0-2.24.33,7.43,7.43,0,0,0-2.24-.33c-2.47,0-4.48,1.1-4.48,2.46a1.46,1.46,0,0,0,.18.67,1.53,1.53,0,0,0-.18.68c0,1.12,1.36,2.06,3.22,2.36h0v0a1.47,1.47,0,0,0,.21.75,6.51,6.51,0,0,0-1.19-.1l-.46,0a5.52,5.52,0,0,0-4-1.38,7.74,7.74,0,0,0-2.23.33,7.81,7.81,0,0,0-2.24-.33c-2.47,0-4.48,1.1-4.48,2.45a1.42,1.42,0,0,0,.18.69,1.36,1.36,0,0,0-.18.68c0,1.11,1.36,2.06,3.23,2.35a.06.06,0,0,0,0,0,1.54,1.54,0,0,1,0,2.45c0,1.36,2,2.46,4.47,2.46a7.09,7.09,0,0,0,2.28-.35,1.36,1.36,0,0,0,0,.29c0,1.36,2,2.45,4.47,2.45a5.43,5.43,0,0,0,4.1-1.46,8.4,8.4,0,0,0,1.63.17c2.11,0,3.87-.8,4.34-1.88l.18,0v0a1.55,1.55,0,0,1,0,2.46c0,1.35,2,2.45,4.48,2.45a5.37,5.37,0,0,0,4.09-1.47,7.79,7.79,0,0,0,1.64.17c2.48,0,4.47-1.1,4.47-2.46a1.59,1.59,0,0,0-.48-1.1h.48a4.64,4.64,0,0,0,.65,0,1.29,1.29,0,0,0-.18.68c0,1.36,2,2.45,4.48,2.45a6.26,6.26,0,0,0,3.53-1,5.28,5.28,0,0,0,4.15,1.54,5.41,5.41,0,0,0,4.1-1.46,7.72,7.72,0,0,0,1.64.17c2.47,0,4.48-1.11,4.48-2.46a1.6,1.6,0,0,0-.5-1.11h.5c2.47,0,4.47-1.09,4.47-2.45S166.51,468.49,164,468.49Z" transform="translate(-6.52 -12.16)"/><path class="cls-2" d="M177,484.74a1.61,1.61,0,0,1-.81,2.15c-4.12,1.92-17.06,6.94-40.78,7.45H135c-23.73-.51-36.66-5.53-40.79-7.45a1.61,1.61,0,0,1-.81-2.15l5.84-12.46a1.8,1.8,0,0,1,2.2-.88,109.68,109.68,0,0,0,67.55,0,1.79,1.79,0,0,1,2.19.88Z" transform="translate(-6.52 -12.16)"/></g></svg>